<?xml version="1.0" encoding="UTF-8"?>
<svg id="Camada_1" data-name="Camada 1" xmlns="http://www.w3.org/2000/svg" viewBox="0 0 1249.76 803.23">
  <defs>
    <style>
      .cls-1 {
        fill: #eae8e8;
      }
    </style>
  </defs>
  <g>
    <path class="cls-1" d="M100.09,467.58v-6.34h35.74v-231.04h-35.74v-6.34h105.61v6.34h-38.99v231.04h38.99v6.34h-105.61Z"/>
    <path class="cls-1" d="M230.89,470.83v-47.44h6.5c1.19,7.37,4.14,14.14,8.85,20.31,4.71,6.17,10.53,11.1,17.47,14.78,6.93,3.68,14.4,5.52,22.42,5.52,6.06,0,11.8-.97,17.22-2.92,5.42-1.95,9.81-4.96,13.16-9.02,3.35-4.06,5.03-9.23,5.03-15.52,0-6.82-2.08-12.24-6.25-16.25-4.17-4.01-9.51-7.28-16.01-9.83-6.5-2.54-13.44-5.04-20.8-7.47-7.37-2.44-14.3-5.39-20.8-8.85s-11.83-8.1-16-13.89c-4.17-5.79-6.26-13.4-6.26-22.83,0-6.93,1.57-13.62,4.71-20.07,3.14-6.44,7.99-11.75,14.54-15.92,6.55-4.17,14.92-6.26,25.1-6.26,7.37,0,14.14,1.19,20.31,3.58,6.18,2.38,11.59,5.58,16.25,9.58l12.19-13.32h5.69v45.33h-6.5c-.54-6.39-2.9-12.51-7.07-18.36-4.17-5.85-9.72-10.67-16.65-14.46-6.93-3.79-14.9-5.69-23.88-5.69-5.09,0-9.81.89-14.14,2.68-4.33,1.79-7.77,4.36-10.32,7.72-2.55,3.36-3.82,7.37-3.82,12.03,0,5.96,2.17,10.8,6.5,14.54,4.33,3.74,9.93,6.96,16.82,9.67,6.88,2.71,14.16,5.39,21.85,8.04,7.69,2.65,14.97,5.85,21.85,9.59,6.88,3.74,12.48,8.5,16.81,14.3,4.33,5.8,6.5,13.19,6.5,22.18,0,9.64-2.36,18.09-7.07,25.35-4.71,7.26-11.08,12.89-19.09,16.9s-17.11,6.01-27.3,6.01c-7.47,0-14.57-1.3-21.29-3.9-6.72-2.6-12.67-6.12-17.87-10.56l-13.16,14.46h-5.52Z"/>
    <path class="cls-1" d="M414.48,470.83c-14.08,0-25.32-3.6-33.71-10.8-8.39-7.2-12.59-16.98-12.59-29.33,0-14.51,6.22-25.92,18.68-34.2,12.45-8.29,30.22-12.43,53.29-12.43h36.88v5.52h-36.88c-9.53,0-17.22,2.01-23.07,6.01-5.85,4.01-10.13,8.99-12.84,14.95-2.71,5.96-4.06,11.92-4.06,17.87,0,5.42.84,10.64,2.52,15.68,1.68,5.04,4.33,9.15,7.96,12.35,3.63,3.2,8.26,4.79,13.89,4.79,6.06,0,11.94-1.95,17.63-5.85,5.69-3.9,10.4-9.8,14.14-17.71,3.74-7.91,5.6-17.76,5.6-29.57h3.74c0,12.35-1.97,23.23-5.93,32.66-3.95,9.42-9.72,16.79-17.3,22.1-7.58,5.31-16.9,7.96-27.95,7.96ZM490.2,470.83c-5.09,0-9.78-.89-14.05-2.68-4.28-1.79-7.72-4.77-10.32-8.94-2.6-4.17-3.9-9.78-3.9-16.82v-73.76c0-7.8-.65-15.27-1.95-22.42-1.3-7.15-4.03-13-8.2-17.55-4.17-4.55-10.59-6.82-19.25-6.82-4.88,0-9.94.54-15.19,1.62-5.26,1.08-10.13,2.74-14.63,4.96-4.5,2.22-8.15,5.01-10.97,8.37-2.82,3.36-4.22,7.31-4.22,11.86h-7.64c0-5.52,1.81-9.88,5.44-13.08s7.61-4.79,11.94-4.79c4.66,0,8.91,1.49,12.76,4.47,3.84,2.98,5.77,7.23,5.77,12.76,0,6.5-1.97,11.21-5.93,14.14-3.95,2.92-8.15,4.39-12.59,4.39-4.98,0-9.18-1.52-12.59-4.55-3.41-3.03-5.12-7.47-5.12-13.32,0-5.09,1.65-9.67,4.96-13.73,3.3-4.06,7.74-7.53,13.32-10.4,5.58-2.87,11.86-5.09,18.85-6.66,6.99-1.57,14.16-2.36,21.53-2.36,14.95,0,26.13,2.6,33.55,7.8,7.42,5.2,12.38,11.86,14.87,19.99,2.49,8.12,3.74,16.57,3.74,25.35v79.94c0,3.58.62,6.61,1.87,9.1,1.24,2.49,3.87,3.74,7.88,3.74,2.82,0,5.93-1.16,9.34-3.49,3.41-2.33,6.04-5.28,7.88-8.85l3.09,5.85c-2.82,4.44-6.8,8.2-11.94,11.29-5.15,3.09-11.24,4.63-18.28,4.63Z"/>
    <path class="cls-1" d="M637.89,470.83c-13.11,0-24.18-4.57-33.23-13.73-9.04-9.15-15.35-21.42-18.93-36.8v47.28h-50.37v-6.34h21.29v-231.04h-21.29v-6.34h50.37v141.68c3.57-15.49,9.88-27.76,18.93-36.8,9.04-9.04,20.12-13.57,33.23-13.57,11.37,0,22.15,3.09,32.33,9.26,10.18,6.17,18.47,15.06,24.86,26.65,6.39,11.59,9.59,25.51,9.59,41.76s-3.2,30.2-9.59,41.84c-6.39,11.65-14.68,20.58-24.86,26.81-10.19,6.23-20.96,9.34-32.33,9.34ZM632.04,462.06c8.45,0,15.6-2.73,21.45-8.2,5.85-5.47,10.29-13.38,13.32-23.72,3.03-10.34,4.55-22.77,4.55-37.29s-1.52-26.92-4.55-37.21c-3.03-10.29-7.47-18.14-13.32-23.56-5.85-5.41-13-8.12-21.45-8.12s-15.71,2.68-22.75,8.04c-7.04,5.36-12.73,13.19-17.06,23.48-4.33,10.29-6.5,22.75-6.5,37.37s2.17,27.11,6.5,37.45c4.33,10.35,10.02,18.23,17.06,23.64,7.04,5.42,14.63,8.12,22.75,8.12Z"/>
    <path class="cls-1" d="M812.06,470.83c-13.76,0-26.22-3.12-37.37-9.34-11.16-6.23-20.01-15.16-26.56-26.81-6.56-11.64-9.83-25.59-9.83-41.84s3.09-30.16,9.26-41.76c6.18-11.59,14.68-20.5,25.51-26.73,10.83-6.23,23.18-9.34,37.04-9.34,15.71,0,28.24,3.11,37.61,9.34,9.36,6.23,16.14,14.43,20.31,24.61,4.17,10.18,6.26,21.18,6.26,32.98h-114.06v-6.34h79.61c0-5.41-.3-11.26-.89-17.55-.59-6.28-1.84-12.21-3.74-17.79-1.9-5.58-4.85-10.15-8.85-13.73-4.01-3.58-9.42-5.36-16.25-5.36-7.8,0-14.19,1.95-19.17,5.85s-8.85,9.23-11.61,16c-2.76,6.77-4.71,14.43-5.85,22.99s-1.7,17.49-1.7,26.81.62,18.23,1.87,26.73c1.25,8.51,3.41,16.09,6.5,22.75,3.09,6.66,7.37,11.92,12.84,15.76,5.47,3.85,12.43,5.77,20.88,5.77,14.52,0,26.41-3.66,35.66-10.97,9.26-7.31,15.9-16.55,19.91-27.7h7.31c-4.22,13.11-11.64,23.99-22.26,32.66-10.62,8.67-24.75,13-42.41,13Z"/>
    <path class="cls-1" d="M956.83,223.87v237.38h27.62v6.34h-84.49v-6.34h27.78v-231.04h-27.78v-6.34h56.87Z"/>
    <path class="cls-1" d="M1053.99,470.83c-14.08,0-25.32-3.6-33.71-10.8-8.39-7.2-12.59-16.98-12.59-29.33,0-14.51,6.22-25.92,18.68-34.2,12.45-8.29,30.22-12.43,53.29-12.43h36.88v5.52h-36.88c-9.53,0-17.22,2.01-23.07,6.01-5.85,4.01-10.13,8.99-12.84,14.95-2.71,5.96-4.06,11.92-4.06,17.87,0,5.42.84,10.64,2.52,15.68,1.68,5.04,4.33,9.15,7.96,12.35,3.63,3.2,8.26,4.79,13.89,4.79,6.06,0,11.94-1.95,17.63-5.85,5.69-3.9,10.4-9.8,14.14-17.71,3.74-7.91,5.6-17.76,5.6-29.57h3.74c0,12.35-1.97,23.23-5.93,32.66-3.95,9.42-9.72,16.79-17.3,22.1-7.58,5.31-16.9,7.96-27.95,7.96ZM1129.71,470.83c-5.09,0-9.78-.89-14.05-2.68-4.28-1.79-7.72-4.77-10.32-8.94-2.6-4.17-3.9-9.78-3.9-16.82v-73.76c0-7.8-.65-15.27-1.95-22.42s-4.03-13-8.2-17.55c-4.17-4.55-10.59-6.82-19.25-6.82-4.88,0-9.94.54-15.19,1.62-5.26,1.08-10.13,2.74-14.63,4.96-4.5,2.22-8.15,5.01-10.97,8.37-2.82,3.36-4.22,7.31-4.22,11.86h-7.64c0-5.52,1.81-9.88,5.44-13.08,3.63-3.19,7.61-4.79,11.94-4.79,4.66,0,8.91,1.49,12.76,4.47,3.84,2.98,5.77,7.23,5.77,12.76,0,6.5-1.97,11.21-5.93,14.14-3.95,2.92-8.15,4.39-12.59,4.39-4.98,0-9.18-1.52-12.59-4.55-3.41-3.03-5.12-7.47-5.12-13.32,0-5.09,1.65-9.67,4.96-13.73,3.3-4.06,7.74-7.53,13.32-10.4,5.58-2.87,11.86-5.09,18.85-6.66,6.99-1.57,14.16-2.36,21.53-2.36,14.95,0,26.13,2.6,33.55,7.8,7.42,5.2,12.38,11.86,14.87,19.99,2.49,8.12,3.74,16.57,3.74,25.35v79.94c0,3.58.62,6.61,1.87,9.1,1.24,2.49,3.87,3.74,7.88,3.74,2.82,0,5.93-1.16,9.34-3.49,3.41-2.33,6.04-5.28,7.88-8.85l3.09,5.85c-2.82,4.44-6.8,8.2-11.94,11.29-5.15,3.09-11.24,4.63-18.28,4.63Z"/>
  </g>
  <g>
    <path class="cls-1" d="M392.16,606.66v-2.29h10.57v-40.07l-26.79-43.48h-8.99v-2.29h34.08v2.29h-12.16l23.68,38.84,23.26-38.84h-12.34v-2.29h23.97v2.29h-8.93l-24.62,40.83v42.72h11.81v2.29h-33.55Z"/>
    <path class="cls-1" d="M463.37,607.83c-5.09,0-9.15-1.3-12.19-3.91-3.04-2.6-4.56-6.14-4.56-10.6,0-5.25,2.25-9.37,6.76-12.37,4.5-3,10.93-4.49,19.27-4.49h13.34v2h-13.34c-3.45,0-6.23.72-8.34,2.17-2.12,1.45-3.67,3.25-4.64,5.41-.98,2.15-1.47,4.31-1.47,6.46,0,1.96.3,3.85.91,5.67s1.57,3.31,2.88,4.47,2.99,1.73,5.02,1.73c2.19,0,4.32-.71,6.38-2.12s3.76-3.54,5.11-6.4,2.03-6.42,2.03-10.69h1.35c0,4.47-.72,8.4-2.14,11.81-1.43,3.41-3.52,6.07-6.26,7.99-2.74,1.92-6.11,2.88-10.11,2.88ZM490.75,607.83c-1.84,0-3.54-.32-5.08-.97-1.55-.65-2.79-1.72-3.73-3.23-.94-1.51-1.41-3.53-1.41-6.08v-26.67c0-2.82-.23-5.52-.7-8.11-.47-2.59-1.46-4.7-2.97-6.35-1.51-1.65-3.83-2.47-6.96-2.47-1.76,0-3.59.2-5.5.59-1.9.39-3.66.99-5.29,1.79-1.63.8-2.95,1.81-3.97,3.03-1.02,1.21-1.53,2.64-1.53,4.29h-2.76c0-2,.66-3.58,1.97-4.73s2.75-1.73,4.32-1.73c1.68,0,3.22.54,4.61,1.61,1.39,1.08,2.08,2.61,2.08,4.61,0,2.35-.71,4.05-2.14,5.11-1.43,1.06-2.95,1.59-4.56,1.59-1.8,0-3.32-.55-4.55-1.65s-1.85-2.7-1.85-4.82c0-1.84.59-3.5,1.79-4.97,1.19-1.47,2.8-2.72,4.82-3.76,2.02-1.04,4.29-1.84,6.81-2.41,2.53-.57,5.12-.85,7.79-.85,5.41,0,9.45.94,12.13,2.82,2.68,1.88,4.48,4.29,5.38,7.23.9,2.94,1.35,5.99,1.35,9.17v28.91c0,1.29.22,2.39.67,3.29.45.9,1.4,1.35,2.85,1.35,1.02,0,2.14-.42,3.38-1.26,1.23-.84,2.19-1.91,2.85-3.2l1.11,2.11c-1.02,1.61-2.46,2.97-4.32,4.08-1.86,1.12-4.06,1.68-6.61,1.68Z"/>
    <path class="cls-1" d="M524.95,552.6v51.76h7.58v2.29h-25.56v-2.29h7.7v-49.47h-7.7v-2.29h17.98ZM558.43,569.11v35.25h7.64v2.29h-25.56v-2.29h7.58v-33.9c0-3.29-.13-6.15-.38-8.58-.25-2.43-.85-4.3-1.79-5.61-.94-1.31-2.45-1.97-4.52-1.97-2.78,0-5.21.87-7.28,2.61s-3.79,3.96-5.14,6.64-2.36,5.49-3.02,8.4c-.67,2.92-1,5.55-1,7.9l-1.29.29c0-2.59.32-5.51.97-8.78.65-3.27,1.73-6.42,3.26-9.46,1.53-3.04,3.57-5.53,6.14-7.49s5.77-2.94,9.61-2.94,6.94.75,9.08,2.26c2.13,1.51,3.62,3.59,4.46,6.26.84,2.66,1.26,5.7,1.26,9.11ZM591.87,569.11v35.25h7.7v2.29h-25.62v-2.29h7.64v-33.9c0-3.29-.18-6.15-.53-8.58-.35-2.43-1.05-4.3-2.08-5.61-1.04-1.31-2.6-1.97-4.67-1.97-2.86,0-5.3.87-7.32,2.61-2.02,1.74-3.65,3.96-4.9,6.64-1.25,2.68-2.18,5.49-2.76,8.4-.59,2.92-.88,5.55-.88,7.9l-1.46.29c0-2.59.29-5.51.88-8.78.59-3.27,1.6-6.42,3.03-9.46s3.42-5.53,5.96-7.49c2.55-1.96,5.77-2.94,9.69-2.94s6.98.75,9.19,2.26,3.79,3.59,4.73,6.26c.94,2.66,1.41,5.7,1.41,9.11Z"/>
    <path class="cls-1" d="M625.94,607.83c-5.09,0-9.15-1.3-12.19-3.91-3.04-2.6-4.56-6.14-4.56-10.6,0-5.25,2.25-9.37,6.76-12.37s10.93-4.49,19.27-4.49h13.34v2h-13.34c-3.45,0-6.23.72-8.34,2.17-2.12,1.45-3.67,3.25-4.64,5.41-.98,2.15-1.47,4.31-1.47,6.46,0,1.96.3,3.85.91,5.67s1.57,3.31,2.88,4.47,2.99,1.73,5.02,1.73c2.19,0,4.32-.71,6.38-2.12s3.76-3.54,5.11-6.4,2.03-6.42,2.03-10.69h1.35c0,4.47-.72,8.4-2.14,11.81-1.43,3.41-3.52,6.07-6.26,7.99-2.74,1.92-6.11,2.88-10.11,2.88ZM653.32,607.83c-1.84,0-3.54-.32-5.08-.97-1.55-.65-2.79-1.72-3.73-3.23-.94-1.51-1.41-3.53-1.41-6.08v-26.67c0-2.82-.23-5.52-.7-8.11-.47-2.59-1.46-4.7-2.97-6.35-1.51-1.65-3.83-2.47-6.96-2.47-1.76,0-3.59.2-5.5.59-1.9.39-3.66.99-5.29,1.79-1.63.8-2.95,1.81-3.97,3.03-1.02,1.21-1.53,2.64-1.53,4.29h-2.76c0-2,.66-3.58,1.97-4.73s2.75-1.73,4.32-1.73c1.68,0,3.22.54,4.61,1.61,1.39,1.08,2.08,2.61,2.08,4.61,0,2.35-.71,4.05-2.14,5.11-1.43,1.06-2.95,1.59-4.56,1.59-1.8,0-3.32-.55-4.55-1.65s-1.85-2.7-1.85-4.82c0-1.84.59-3.5,1.79-4.97,1.19-1.47,2.8-2.72,4.82-3.76,2.02-1.04,4.29-1.84,6.81-2.41,2.53-.57,5.12-.85,7.79-.85,5.41,0,9.45.94,12.13,2.82s4.48,4.29,5.38,7.23c.9,2.94,1.35,5.99,1.35,9.17v28.91c0,1.29.22,2.39.67,3.29.45.9,1.4,1.35,2.85,1.35,1.02,0,2.14-.42,3.38-1.26,1.23-.84,2.19-1.91,2.85-3.2l1.11,2.11c-1.02,1.61-2.46,2.97-4.32,4.08-1.86,1.12-4.06,1.68-6.61,1.68Z"/>
    <path class="cls-1" d="M690.28,607.83c-4.54,0-7.98-.77-10.31-2.32-2.33-1.55-3.9-3.65-4.7-6.32-.8-2.66-1.2-5.7-1.2-9.11v-35.19h-7.7v-2.29h18.21v35.78c0,3.29.16,6.18.47,8.67.31,2.49.99,4.43,2.02,5.82,1.04,1.39,2.62,2.09,4.73,2.09,3.17,0,5.9-.86,8.2-2.59,2.29-1.72,4.16-3.93,5.61-6.61s2.52-5.52,3.2-8.52c.69-3,1.03-5.75,1.03-8.26l1.35-.29c0,2.59-.3,5.54-.91,8.87s-1.66,6.53-3.17,9.61c-1.51,3.08-3.63,5.62-6.37,7.64-2.74,2.02-6.23,3.03-10.46,3.03ZM709.84,606.66v-51.76h-8.22v-2.29h18.86v51.76h7.64v2.29h-18.28Z"/>
    <path class="cls-1" d="M762.01,607.83c-5.13,0-9.71-1.13-13.75-3.38s-7.22-5.48-9.55-9.69c-2.33-4.21-3.5-9.25-3.5-15.13,0-5.09,1.05-9.77,3.14-14.04,2.1-4.27,5.17-7.7,9.23-10.28,4.05-2.58,9.04-3.88,14.95-3.88,3.99,0,7.44.69,10.34,2.06,2.9,1.37,5.13,3.14,6.7,5.32s2.35,4.48,2.35,6.9c0,2.11-.61,3.76-1.82,4.94s-2.72,1.76-4.52,1.76c-.98,0-1.99-.22-3.03-.68-1.04-.45-1.91-1.16-2.61-2.11s-1.06-2.22-1.06-3.79c0-2.08.66-3.65,2-4.73,1.33-1.08,2.9-1.61,4.7-1.61,1.68,0,3.14.52,4.38,1.56,1.23,1.04,1.85,2.6,1.85,4.67h-2.23c0-1.84-.46-3.49-1.38-4.94s-2.15-2.69-3.7-3.73c-1.55-1.04-3.26-1.83-5.14-2.38s-3.76-.82-5.64-.82c-3.37,0-6.11.81-8.22,2.44-2.12,1.63-3.75,3.73-4.91,6.32-1.15,2.59-1.95,5.38-2.38,8.37-.43,3-.64,5.89-.64,8.67,0,3.37.23,6.58.7,9.64s1.27,5.77,2.41,8.14,2.69,4.24,4.67,5.61,4.48,2.06,7.49,2.06c3.21,0,5.96-.59,8.23-1.76s4.18-2.8,5.73-4.88c1.55-2.08,2.85-4.45,3.91-7.11h2.47c-1.53,4.74-3.95,8.68-7.26,11.81s-7.94,4.7-13.9,4.7Z"/>
    <path class="cls-1" d="M790.16,606.66v-2.29h7.7v-83.55h-7.7v-2.29h18.21v85.84h7.64v2.29h-25.85ZM826,606.66v-2.29h7.64v-33.49c0-3.29-.15-6.18-.44-8.67-.3-2.49-.95-4.43-1.97-5.82-1.02-1.39-2.61-2.09-4.76-2.09-3.17,0-5.9.86-8.2,2.58-2.29,1.72-4.16,3.93-5.61,6.61s-2.53,5.51-3.23,8.49-1.06,5.74-1.06,8.28l-1.47.29c0-2.58.34-5.53,1.03-8.84.68-3.31,1.82-6.5,3.41-9.58,1.59-3.07,3.73-5.62,6.43-7.64,2.7-2.02,6.05-3.02,10.05-3.02,4.5,0,7.91.75,10.22,2.26s3.88,3.59,4.7,6.26c.83,2.66,1.23,5.7,1.23,9.11v35.25h7.7v2.29h-25.67Z"/>
    <path class="cls-1" d="M875.76,552.6v51.76h7.7v2.29h-25.91v-2.29h7.64v-49.47h-7.64v-2.29h18.21ZM870.53,531.8c-1.92,0-3.57-.7-4.96-2.11-1.39-1.41-2.09-3.07-2.09-4.99s.7-3.62,2.09-4.99c1.39-1.37,3.04-2.06,4.96-2.06s3.63.69,5,2.06c1.37,1.37,2.06,3.04,2.06,4.99s-.69,3.58-2.06,4.99c-1.37,1.41-3.04,2.11-5,2.11Z"/>
  </g>
</svg>